<?xml version="1.0" encoding="UTF-8"?>
<svg version="1.1" xmlns="http://www.w3.org/2000/svg" width="1024" height="1024">
<path d="M0 0 C3.70661082 0.00915513 7.41258938 0.00231961 11.11914062 -0.02050781 C81.66813166 -0.4520985 151.25872584 12.03385231 216.08105469 40.44604492 C217.03351074 40.86321777 217.9859668 41.28039063 218.96728516 41.71020508 C241.1625726 51.50982569 262.47907469 62.63278745 283.08105469 75.44604492 C284.0364917 76.03482422 284.0364917 76.03482422 285.01123047 76.63549805 C295.40430618 83.05649933 305.2470591 90.20897964 315.08105469 97.44604492 C315.78584961 97.96102539 316.49064453 98.47600586 317.21679688 99.0065918 C330.21329673 108.51085569 342.35756462 118.79910561 354.15917969 129.74291992 C356.09674367 131.53542563 358.0446159 133.31685693 360.00292969 135.08666992 C369.88907186 144.03127475 379.71049875 153.22166546 388.32714844 163.41479492 C390.13918832 165.51337118 392.022746 167.53571069 393.91845703 169.55859375 C399.92683142 175.99168731 405.40635674 182.73934774 410.7578125 189.72436523 C412.01969049 191.36620353 413.29394697 192.99744628 414.57324219 194.62573242 C465.44284882 259.79733709 499.7712862 338.40299821 512.39355469 420.13354492 C512.51070831 420.8818457 512.62786194 421.63014648 512.74856567 422.40112305 C513.62459778 428.07117314 514.37141711 433.75300575 515.08105469 439.44604492 C515.21309296 440.4649884 515.34513123 441.48393188 515.48117065 442.53375244 C518.1747285 463.82066658 518.58242683 484.93209653 518.52709961 506.36499023 C518.51794448 510.07160106 518.52478 513.77757962 518.54760742 517.48413086 C518.97919811 588.03312189 506.4932473 657.62371607 478.08105469 722.44604492 C477.66388184 723.39850098 477.24670898 724.35095703 476.81689453 725.33227539 C467.01727392 747.52756283 455.89431216 768.84406492 443.08105469 789.44604492 C442.68853516 790.08300293 442.29601562 790.71996094 441.89160156 791.3762207 C435.47060028 801.76929641 428.31811997 811.61204933 421.08105469 821.44604492 C420.56607422 822.15083984 420.05109375 822.85563477 419.52050781 823.58178711 C410.01624392 836.57828696 399.727994 848.72255485 388.78417969 860.52416992 C386.99167397 862.4617339 385.21024268 864.40960614 383.44042969 866.36791992 C374.49582486 876.2540621 365.30543415 886.07548898 355.11230469 894.69213867 C353.01372843 896.50417855 350.99138892 898.38773623 348.96850586 900.28344727 C342.5354123 906.29182165 335.78775187 911.77134697 328.80273438 917.12280273 C327.16089607 918.38468072 325.52965333 919.6589372 323.90136719 920.93823242 C258.72976252 971.80783906 180.1241014 1006.13627644 98.39355469 1018.75854492 C97.64525391 1018.87569855 96.89695312 1018.99285217 96.12597656 1019.11355591 C90.45592647 1019.98958801 84.77409386 1020.73640735 79.08105469 1021.44604492 C78.06211121 1021.57808319 77.04316772 1021.71012146 75.99334717 1021.84616089 C54.70643303 1024.53971874 33.59500308 1024.94741706 12.16210938 1024.89208984 C8.45549855 1024.88293472 4.74951999 1024.88977024 1.04296875 1024.91259766 C-69.50602229 1025.34418834 -139.09661646 1012.85823754 -203.91894531 984.44604492 C-204.87140137 984.02887207 -205.82385742 983.61169922 -206.80517578 983.18188477 C-229.00046322 973.38226415 -250.31696532 962.25930239 -270.91894531 949.44604492 C-271.55590332 949.05352539 -272.19286133 948.66100586 -272.84912109 948.2565918 C-283.2421968 941.83559052 -293.08494972 934.68311021 -302.91894531 927.44604492 C-303.62374023 926.93106445 -304.32853516 926.41608398 -305.0546875 925.88549805 C-318.05118735 916.38123415 -330.19545524 906.09298423 -341.99707031 895.14916992 C-343.93463429 893.35666421 -345.88250653 891.57523291 -347.84082031 889.80541992 C-357.72696249 880.86081509 -367.54838937 871.67042438 -376.16503906 861.47729492 C-377.97707894 859.37871867 -379.86063662 857.35637916 -381.75634766 855.33349609 C-387.76472204 848.90040253 -393.24424736 842.1527421 -398.59570312 835.16772461 C-399.85758112 833.52588631 -401.13183759 831.89464357 -402.41113281 830.26635742 C-453.28073945 765.09475275 -487.60917683 686.48909164 -500.23144531 604.75854492 C-500.40717575 603.63609375 -500.40717575 603.63609375 -500.5864563 602.4909668 C-501.4624884 596.82091671 -502.20930774 591.1390841 -502.91894531 585.44604492 C-503.05098358 584.42710144 -503.18302185 583.40815796 -503.31906128 582.3583374 C-506.01261913 561.07142326 -506.42031745 539.95999332 -506.36499023 518.52709961 C-506.35583511 514.82048879 -506.36267063 511.11451023 -506.38549805 507.40795898 C-506.81708873 436.85896795 -494.33113793 367.26837377 -465.91894531 302.44604492 C-465.50177246 301.49358887 -465.08459961 300.54113281 -464.65478516 299.55981445 C-454.85516454 277.36452701 -443.73220278 256.04802492 -430.91894531 235.44604492 C-430.33016602 234.49060791 -430.33016602 234.49060791 -429.72949219 233.51586914 C-423.30849091 223.12279343 -416.1560106 213.28004051 -408.91894531 203.44604492 C-408.40396484 202.74125 -407.88898438 202.03645508 -407.35839844 201.31030273 C-397.85413454 188.31380288 -387.56588462 176.16953499 -376.62207031 164.36791992 C-374.8295646 162.43035594 -373.0481333 160.48248371 -371.27832031 158.52416992 C-362.33371549 148.63802774 -353.14332477 138.81660086 -342.95019531 130.19995117 C-340.85161906 128.38791129 -338.82927955 126.50435361 -336.80639648 124.60864258 C-330.37330293 118.60026819 -323.62564249 113.12074287 -316.640625 107.76928711 C-314.9987867 106.50740912 -313.36754396 105.23315264 -311.73925781 103.95385742 C-246.56765314 53.08425079 -167.96199203 18.75581341 -86.23144531 6.13354492 C-85.10899414 5.95781448 -85.10899414 5.95781448 -83.96386719 5.77853394 C-78.2938171 4.90250183 -72.61198449 4.1556825 -66.91894531 3.44604492 C-65.39053009 3.24798752 -65.39053009 3.24798752 -63.83123779 3.04592896 C-42.54432365 0.35237111 -21.43289371 -0.05532722 0 0 Z " fill="#49C42F" transform="translate(505.9189453125,-0.446044921875)"/>
<path d="M0 0 C1.69939814 -0.00627574 3.39879495 -0.01292349 5.09819031 -0.01991272 C10.64113435 -0.04079658 16.18407823 -0.05128973 21.72705078 -0.0612793 C23.64065693 -0.06533058 25.55426294 -0.0694476 27.4678688 -0.07362938 C36.44757536 -0.09263433 45.42727385 -0.10688378 54.40699661 -0.11524135 C64.76506499 -0.12504307 75.12292135 -0.15145825 85.48091495 -0.19174224 C93.49894897 -0.22185622 101.51692192 -0.2367051 109.53501141 -0.24002236 C114.32050412 -0.24237512 119.10576904 -0.25136747 123.89120102 -0.27648354 C128.3843845 -0.29969146 132.87718885 -0.3040271 137.37041664 -0.29372215 C139.02001644 -0.29322516 140.66963452 -0.29959349 142.31917763 -0.3132782 C144.56853977 -0.33089862 146.81652582 -0.32394173 149.06588745 -0.31074524 C150.32497358 -0.31313359 151.58405972 -0.31552195 152.88129997 -0.31798267 C156.62910988 0.26795264 157.81410375 1.16111732 160.04736328 4.17700195 C160.55529785 7.13671875 160.55529785 7.13671875 160.56494141 10.6262207 C160.57755005 11.93437744 160.59015869 13.24253418 160.60314941 14.59033203 C160.59598961 16.01506082 160.58778563 17.4397847 160.57861328 18.86450195 C160.58130877 20.32894142 160.58519167 21.79337915 160.59020996 23.2578125 C160.59610247 26.32447376 160.58755074 29.39066844 160.56884766 32.45727539 C160.54605738 36.38513832 160.55918191 40.31190801 160.58313751 44.23973083 C160.59760269 47.26298232 160.5929864 50.28597528 160.58262634 53.30923462 C160.579961 54.75729502 160.58322211 56.20537902 160.59254456 57.65341187 C160.60271987 59.67819765 160.5844566 61.7030659 160.56494141 63.7277832 C160.56175903 64.87931885 160.55857666 66.03085449 160.55529785 67.21728516 C159.91843769 70.92824682 159.00438944 71.89085001 156.04736328 74.17700195 C152.99455738 74.67363739 152.99455738 74.67363739 149.34077454 74.66906738 C148.66739821 74.67374637 147.99402189 74.67842536 147.30024022 74.68324614 C145.0440902 74.69417738 142.78905622 74.67668839 140.53295898 74.65942383 C138.91464916 74.66160994 137.29634091 74.66560705 135.67803955 74.67127991 C132.19069658 74.67985093 128.70366124 74.67605164 125.21633339 74.66285706 C119.68742974 74.64250089 114.15883518 74.65250962 108.62992859 74.66711426 C95.87820028 74.69615793 83.12656219 74.68546422 70.37481689 74.67441559 C58.72071124 74.66471359 47.06676825 74.66364744 35.41268986 74.69429636 C29.93286662 74.70757278 24.45351097 74.70184644 18.97371638 74.68093109 C15.53776851 74.67184934 12.10199472 74.67950561 8.6660614 74.69134331 C7.09127376 74.69344772 5.51645837 74.68891066 3.94171715 74.67663765 C-13.23832436 74.5504735 -32.28675948 77.17475077 -45.37060547 89.4309082 C-62.16617476 107.96824023 -62.41588408 129.40892887 -62.35107422 153.0480957 C-62.35309901 155.66016216 -62.35601381 158.27222806 -62.35977173 160.8842926 C-62.36520015 166.34006378 -62.35811578 171.79571236 -62.34375 177.25146484 C-62.32743726 183.51814534 -62.33271367 189.78453268 -62.34922922 196.05120605 C-62.36459713 202.1306174 -62.36282616 208.20990101 -62.35408401 214.28932381 C-62.35209717 216.85309962 -62.35448734 219.41688302 -62.36152267 221.98064995 C-62.72428418 246.0110294 -62.72428418 246.0110294 -55.26513672 268.55200195 C-54.73859497 269.55166992 -54.73859497 269.55166992 -54.20141602 270.5715332 C-46.93173517 283.9055087 -35.766611 291.56414838 -21.48779297 296.4855957 C-16.33646653 297.89050291 -11.34387696 298.32000868 -6.0168457 298.41748047 C-5.01808411 298.43697502 -5.01808411 298.43697502 -3.99914551 298.4568634 C2.90167066 298.58273319 9.80361913 298.64012341 16.70532227 298.69189453 C19.97748556 298.71873159 23.24821012 298.7676072 26.51977539 298.83544922 C30.48205967 298.91737431 34.44296464 298.96006799 38.40604973 298.97495842 C39.91207242 298.98719767 41.41804995 299.01321246 42.92358589 299.05340767 C50.88253634 299.55229659 50.88253634 299.55229659 57.96765137 296.70350647 C59.39159224 294.57530912 60.21805257 292.59788193 61.04736328 290.17700195 C61.54173637 288.99287971 61.54173637 288.99287971 62.0460968 287.78483582 C63.11456814 285.16470439 64.0689959 282.52182352 65.00830078 279.8527832 C65.36195709 278.87069382 65.7156134 277.88860443 66.07998657 276.87675476 C67.2028957 273.75073619 68.31254453 270.6201883 69.42236328 267.48950195 C70.15853617 265.43908208 70.89550939 263.38894938 71.63330078 261.33911133 C76.29337599 248.34659793 80.74040726 235.2905271 85.04736328 222.17700195 C83.85466072 222.18366379 83.85466072 222.18366379 82.63786316 222.19046021 C75.14828732 222.23051696 67.65876335 222.26097615 60.16910839 222.2806263 C56.31850303 222.2910682 52.4679861 222.30523474 48.61743164 222.32788086 C44.90216005 222.34959486 41.18697359 222.36156752 37.47164345 222.36675644 C36.05344617 222.3704548 34.6352536 222.3776767 33.21709251 222.38846207 C31.23242095 222.40295697 29.24766393 222.4038187 27.26293945 222.40405273 C25.56750252 222.41071457 25.56750252 222.41071457 23.83781433 222.41751099 C21.04736328 222.17700195 21.04736328 222.17700195 18.04736328 220.17700195 C17.66641235 217.33044434 17.66641235 217.33044434 17.65917969 213.64770508 C17.65129425 212.64259132 17.65129425 212.64259132 17.64324951 211.61717224 C17.63002152 209.39729657 17.63879681 207.17813519 17.64892578 204.95825195 C17.64690583 203.41890322 17.64399506 201.87955541 17.64022827 200.34020996 C17.63580115 197.11204936 17.64224821 193.88413757 17.65625 190.65600586 C17.67334238 186.5128321 17.66350324 182.37024128 17.64553261 178.22708893 C17.63470507 175.04782702 17.6381363 171.8687039 17.64591599 168.68943787 C17.64792086 167.16157462 17.64544865 165.63369888 17.63847733 164.10585022 C17.63087941 161.97232568 17.64244207 159.8397523 17.65917969 157.70629883 C17.66156647 156.49099487 17.66395325 155.27569092 17.66641235 154.02355957 C17.79212616 153.08419556 17.91783997 152.14483154 18.04736328 151.17700195 C21.43518968 148.91845102 22.58173306 148.92603899 26.55102539 148.92303467 C27.69513885 148.91739502 28.83925232 148.91175537 30.01803589 148.90594482 C31.9023381 148.91201752 31.9023381 148.91201752 33.82470703 148.91821289 C35.16016837 148.91550303 36.4956282 148.91194212 37.83108521 148.90759277 C41.45912965 148.89846592 45.0870605 148.90201421 48.71510696 148.90835094 C52.50937459 148.91340941 56.30363239 148.90871992 60.09790039 148.90557861 C66.47006987 148.90193852 72.84219302 148.90673919 79.21435547 148.91625977 C86.58467923 148.92714442 93.95489235 148.92361887 101.32521343 148.91260695 C107.64969423 148.9035353 113.9741417 148.9022482 120.2986269 148.90748429 C124.07751085 148.91060467 127.85634277 148.91101149 131.63522339 148.90441132 C135.18764305 148.89864024 138.73991986 148.90263029 142.29232407 148.91419983 C144.22044426 148.91811229 146.14857652 148.91215871 148.07669067 148.90594482 C149.22080414 148.91158447 150.3649176 148.91722412 151.54370117 148.92303467 C153.03807457 148.92416574 153.03807457 148.92416574 154.56263733 148.92531967 C157.04736328 149.17700195 157.04736328 149.17700195 160.04736328 151.17700195 C160.47541809 153.92453003 160.47541809 153.92453003 160.54663086 157.47729492 C160.56313187 158.12511429 160.57963287 158.77293365 160.59663391 159.44038391 C160.64579226 161.60005582 160.67095747 163.75906847 160.69189453 165.91918945 C160.70648995 167.03898382 160.70648995 167.03898382 160.72138023 168.1814003 C160.77239769 172.16237044 160.80501786 176.14301629 160.82299805 180.12426758 C160.84036479 183.36416467 160.88812392 186.60110231 160.96655273 189.84008789 C161.46381734 210.82048255 159.82778978 227.55751613 151.36361694 247.09619141 C149.36348463 251.77768168 147.64938 256.55543337 145.90673828 261.3371582 C145.23500945 263.13044729 144.56067924 264.92276405 143.88378906 266.71411133 C143.37480072 268.06218872 143.37480072 268.06218872 142.85552979 269.4375 C142.50633484 270.36216064 142.15713989 271.28682129 141.79736328 272.23950195 C140.24656205 276.3548902 138.69749254 280.47092868 137.14892578 284.5871582 C136.74612396 285.65737213 136.34332214 286.72758606 135.92831421 287.83023071 C132.89356871 295.90237985 129.88628205 303.98446237 126.88945007 312.07073784 C126.13629492 314.10251843 125.38253103 316.13407206 124.62854004 318.1655426 C124.38098969 318.83254024 124.13343933 319.49953787 123.87838745 320.18674755 C123.38054261 321.5281045 122.8826789 322.86945444 122.38479614 324.21079731 C120.92346613 328.14891816 119.46602397 332.08845157 118.0112133 336.02898502 C116.88358365 339.07964122 115.75011554 342.12812871 114.61767578 345.17700195 C114.21422943 346.27390854 113.81078308 347.37081512 113.39511108 348.5009613 C111.74422643 352.93299776 110.06899074 357.35893134 108.13671875 361.67700195 C107.87631805 362.26481445 107.61591736 362.85262695 107.34762573 363.45825195 C104.66078787 367.00984461 101.97649789 368.89000799 97.60155106 369.54086113 C94.53966308 369.69143478 91.50229165 369.70583872 88.43676758 369.67871094 C87.27326279 369.68411392 86.109758 369.68951691 84.91099548 369.69508362 C81.06426534 369.70758842 77.21828165 369.69105578 73.37158203 369.6730957 C70.68560273 369.67325076 67.99965 369.67468773 65.31367493 369.67750549 C59.67720903 369.6802063 54.04095616 369.66675744 48.40454102 369.64355469 C41.93129384 369.61708767 35.4584059 369.6151528 28.98512334 369.62694305 C22.72098654 369.63781972 16.45697694 369.63144806 10.19285011 369.61738777 C7.54692286 369.61169835 4.90124361 369.61250829 2.25528526 369.61645317 C-36.45687393 369.64712456 -68.65882583 360.15829744 -97.95263672 334.17700195 C-99.00474042 333.30408669 -100.05941817 332.43426416 -101.11669922 331.56762695 C-121.85918735 314.08222373 -133.18053421 286.44091762 -136.95263672 260.17700195 C-137.34322228 254.95964115 -137.37504805 249.7601512 -137.35668945 244.53125 C-137.36241104 243.03116351 -137.3693821 241.53108136 -137.37748718 240.03100586 C-137.39523861 236.00389021 -137.39428442 231.97699457 -137.3885448 227.94985175 C-137.38542593 224.56576318 -137.39157519 221.18171525 -137.39758354 217.79763252 C-137.41156866 209.80206478 -137.41011851 201.80660402 -137.39868164 193.81103516 C-137.38721223 185.61247538 -137.40127005 177.41424319 -137.42807811 169.21572655 C-137.45036226 162.13067721 -137.45684393 155.04572972 -137.4510017 147.96064788 C-137.4476604 143.74936269 -137.44985556 139.53828719 -137.46725273 135.32703209 C-137.60025652 99.72563562 -131.80242013 69.02494046 -106.95263672 42.17700195 C-106.23591797 41.37907227 -105.51919922 40.58114258 -104.78076172 39.7590332 C-77.73962529 11.04053305 -38.24332427 0.0624164 0 0 Z " fill="#FAF5E3" transform="translate(332.95263671875,313.822998046875)"/>
<path d="M0 0 C1.00769691 -0.0098568 1.00769691 -0.0098568 2.03575134 -0.01991272 C4.26382559 -0.03965603 6.49183227 -0.05131283 8.7199707 -0.0612793 C9.48167887 -0.06535482 10.24338703 -0.06943035 11.02817726 -0.07362938 C15.0627274 -0.09449826 19.09724348 -0.10879429 23.13183594 -0.11816406 C27.29025215 -0.12920778 31.44813018 -0.16358113 35.60635662 -0.20333576 C38.81066346 -0.22954647 42.01484322 -0.23786 45.21924782 -0.24144554 C46.75138785 -0.24630298 48.28352253 -0.25789298 49.81555748 -0.27648354 C65.30214049 -0.45266793 65.30214049 -0.45266793 70.45825195 4.17700195 C72.18182066 6.7151406 73.33922577 9.32726954 74.45825195 12.17700195 C74.75701233 12.90566467 75.05577271 13.63432739 75.36358643 14.3850708 C76.32575951 16.7862376 77.24363564 19.20088505 78.15356445 21.62231445 C78.49830811 22.52870667 78.84305176 23.43509888 79.19824219 24.36895752 C79.94142266 26.32359166 80.68284344 28.27889561 81.42266846 30.23480225 C83.42495877 35.52647172 85.44196203 40.81252922 87.45825195 46.09887695 C87.87309845 47.18723846 88.28794495 48.27559998 88.71536255 49.39694214 C92.94246345 60.47305557 97.25326011 71.51578169 101.58325195 82.55200195 C102.33805372 84.47688789 103.09285515 86.40177396 103.84765625 88.32666016 C104.96722541 91.18116511 106.0869966 94.03559033 107.2071991 96.8898468 C110.94703687 106.41903912 114.67380335 115.95331009 118.39575195 125.48950195 C118.71788666 126.31458252 119.04002136 127.13966309 119.37191772 127.98974609 C123.2901873 138.02703914 127.19436917 148.06969168 131.08325195 158.1184082 C139.40941552 179.63114342 147.77896693 201.12420572 156.28344727 222.56713867 C159.55296463 230.81340398 162.81339023 239.06258168 166.02075195 247.33325195 C166.31511642 248.09204147 166.6094809 248.85083099 166.9127655 249.63261414 C167.21032242 250.39967178 167.50787933 251.16672943 167.81445312 251.95703125 C173.81046614 267.41314842 179.90360776 282.82859076 186.0637207 298.2199707 C186.40108183 299.06292316 186.73844296 299.90587563 187.08602715 300.7743721 C190.52668953 309.36998621 193.97108565 317.96409553 197.42101383 326.55599499 C198.72600304 329.80670346 200.02973172 333.05791668 201.33329201 336.30919838 C202.2429798 338.57647392 203.15462643 340.8429552 204.06632996 343.10942078 C204.62139001 344.4934788 205.17635258 345.87757594 205.73120117 347.26171875 C206.21144745 348.45709763 206.69169373 349.6524765 207.18649292 350.88407898 C210.94276655 360.6100722 210.94276655 360.6100722 209.45825195 366.17700195 C207.45825195 369.17700195 207.45825195 369.17700195 204.45825195 370.17700195 C202.4508179 370.28593406 200.43999362 370.33592154 198.4296875 370.35400391 C197.18797287 370.36683914 195.94625824 370.37967438 194.66691589 370.39289856 C193.3096049 370.40106651 191.95228938 370.40851014 190.5949707 370.4152832 C189.56775374 370.42139649 189.56775374 370.42139649 188.51978493 370.42763329 C184.89486622 370.44847447 181.26998515 370.46278442 177.64501953 370.47216797 C173.9091252 370.48322691 170.17382738 370.51762546 166.43814373 370.55733967 C163.5581403 370.58353718 160.67827836 370.59186253 157.79816628 370.59544945 C156.42149643 370.60030759 155.04483258 370.61189968 153.66827965 370.63048744 C140.25425879 370.80035668 140.25425879 370.80035668 135.45825195 366.17700195 C130.01423253 360.10048235 127.51049807 351.46625903 124.52075195 343.98950195 C121.08057445 335.44726294 117.53289906 327.0049463 113.55761719 318.6953125 C112.45825195 316.17700195 112.45825195 316.17700195 112.45825195 314.17700195 C114.21484375 312.65234375 114.21484375 312.65234375 116.6574707 310.8762207 C117.53725586 310.2284668 118.41704102 309.58071289 119.32348633 308.91333008 C120.25483398 308.2372168 121.18618164 307.56110352 122.14575195 306.86450195 C132.96863144 299.79103386 132.96863144 299.79103386 139.45825195 289.17700195 C140.2461421 284.11199384 138.7129098 281.36419707 136.04833984 277.24853516 C133.35133213 273.73492999 130.01043652 271.27941913 126.45825195 268.67700195 C125.68078613 268.09023682 124.90332031 267.50347168 124.10229492 266.89892578 C122.43420066 265.64083171 120.76202977 264.38812771 119.08618164 263.14038086 C116.38579214 261.12286578 113.70498908 259.08165316 111.02856445 257.0324707 C107.55297785 254.37147471 104.0756695 251.71289993 100.59106445 249.0637207 C99.77017334 248.42869629 98.94928223 247.79367187 98.10351562 247.1394043 C96.23919265 245.75634679 94.32106851 244.44440808 92.36962891 243.18725586 C83.80016522 237.4592981 80.66040505 231.75698019 77.39575195 222.17700195 C76.87119289 220.73740666 76.34229973 219.29938483 75.80957031 217.86279297 C74.63872649 214.69579405 73.48630976 211.52285316 72.34399414 208.34545898 C69.28466384 199.89438761 65.9774304 191.5372384 62.7097168 183.16516113 C61.51488403 180.09944597 60.32548231 177.03168057 59.13793945 173.96313477 C52.61016143 157.09689785 46.01268547 140.2584042 39.39575195 123.42700195 C39.15214558 122.80727886 38.9085392 122.18755577 38.65755081 121.54905319 C36.24088703 115.40136833 33.82306779 109.25413782 31.40332031 103.10766602 C31.07424179 102.27172913 30.74516327 101.43579224 30.40611267 100.57452393 C29.43017344 98.10598006 28.44574042 95.64094598 27.45825195 93.17700195 C25.26864358 96.46141451 23.93970144 99.81066422 22.53637695 103.4699707 C22.24454025 104.22187683 21.95270355 104.97378296 21.65202332 105.74847412 C21.00987675 107.40389483 20.36934445 109.05994238 19.73019409 110.71652222 C18.31457483 114.38456856 16.89033908 118.04925014 15.46653748 121.71412659 C14.69173171 123.70848297 13.91729764 125.70298379 13.14320374 127.69761658 C8.42576729 139.84901612 3.6625858 151.98241266 -1.10424805 164.11450195 C-1.56454407 165.28640076 -2.02484009 166.45829956 -2.49908447 167.66571045 C-10.16391379 187.17639645 -17.88331704 206.66515131 -25.61932373 226.14770508 C-32.35869802 243.12258389 -39.06663313 260.10934424 -45.72924805 277.11450195 C-46.13162689 278.14146179 -46.53400574 279.16842163 -46.94857788 280.22650146 C-50.26424001 288.69028606 -53.57672414 297.15531376 -56.88916016 305.62036133 C-59.64381296 312.65965088 -62.39956115 319.69850985 -65.15664673 326.73684692 C-66.44190745 330.01914165 -67.7256347 333.30203315 -69.00927734 336.58496094 C-70.86620759 341.33209412 -72.73687714 346.07363262 -74.6137085 350.81292725 C-75.43816243 352.91312944 -76.24245634 355.01946629 -77.03833008 357.13061523 C-77.66070557 358.73332275 -77.66070557 358.73332275 -78.2956543 360.3684082 C-78.78207397 361.65726929 -78.78207397 361.65726929 -79.27832031 362.97216797 C-80.96026401 365.90736285 -82.72449676 367.29888995 -85.54174805 369.17700195 C-88.67314148 369.67147827 -88.67314148 369.67147827 -92.22802734 369.6628418 C-92.87903412 369.66663849 -93.53004089 369.67043518 -94.20077515 369.67434692 C-96.33967185 369.68172085 -98.47719218 369.66042406 -100.6159668 369.63793945 C-102.10618429 369.63555382 -103.59640483 369.63464996 -105.08662415 369.63516235 C-108.20279893 369.63204023 -111.3185117 369.61551607 -114.43457031 369.58862305 C-118.43297264 369.55455503 -122.43086995 369.54699726 -126.42940044 369.54851341 C-129.50314676 369.54797036 -132.57678221 369.5370152 -135.65049171 369.52251053 C-137.12531508 369.51613914 -138.60015102 369.51220284 -140.07498741 369.51072311 C-142.13142833 369.50639856 -144.18732741 369.48891962 -146.24365234 369.4675293 C-147.4143779 369.4599057 -148.58510345 369.4522821 -149.79130554 369.44442749 C-152.54174805 369.17700195 -152.54174805 369.17700195 -154.54174805 367.17700195 C-155.44402648 359.75448505 -152.88727879 354.3810725 -149.91674805 347.67700195 C-148.81216355 345.09849074 -147.7124875 342.51837945 -146.61987305 339.93481445 C-146.15794052 338.84567245 -146.15794052 338.84567245 -145.68667603 337.73452759 C-140.78430502 326.10017153 -136.26221305 314.30987419 -131.66674805 302.55200195 C-129.73941047 297.62841415 -127.81071753 292.70535813 -125.8815918 287.7824707 C-125.18231819 285.99752953 -125.18231819 285.99752953 -124.46891785 284.17652893 C-120.76256405 274.722915 -117.01388771 265.28701206 -113.22924805 255.86450195 C-102.9494811 230.26087796 -92.833607 204.59172421 -82.7590332 178.90673828 C-79.12136425 169.63800076 -75.45936128 160.37899049 -71.79528809 151.1206665 C-64.76588397 133.35880392 -57.77016607 115.58395631 -50.79174805 97.80200195 C-43.19899439 78.45580678 -35.57524354 59.12225142 -27.91674805 39.80200195 C-27.46900024 38.67240051 -27.02125244 37.54279907 -26.55993652 36.37896729 C-25.29120213 33.17869435 -24.02208508 29.97857362 -22.75268555 26.77856445 C-22.38386261 25.84874756 -22.01503967 24.91893066 -21.63504028 23.9609375 C-20.9428311 22.21692012 -20.24832433 20.4738124 -19.5512085 18.73175049 C-18.85206805 16.96236166 -18.1699405 15.18619146 -17.50152588 13.40496826 C-17.16240173 12.51424622 -16.82327759 11.62352417 -16.47387695 10.70581055 C-16.17687897 9.90887787 -15.87988098 9.11194519 -15.57388306 8.29086304 C-12.36184019 1.71244805 -6.82654707 0.05517456 0 0 Z " fill="#FAF5E4" transform="translate(619.541748046875,313.822998046875)"/>
<path d="M0 0 C5.54950251 0.62655674 10.86647566 2.42897566 14.875 6.4375 C14.57014721 12.31121705 12.57987473 17.32754486 10.40234375 22.7421875 C10.04775085 23.64178696 9.69315796 24.54138641 9.32781982 25.46824646 C8.16296995 28.41912278 6.98770146 31.36573282 5.8125 34.3125 C4.99439019 36.3801328 4.17709952 38.44808989 3.3605957 40.51635742 C1.68539187 44.75833136 0.00687927 48.99897337 -1.67382812 53.23876953 C-4.96522426 61.55094763 -8.20811481 69.88187042 -11.44955444 78.21362305 C-12.43322489 80.7390244 -13.41979076 83.26327366 -14.4074707 85.78710938 C-17.27689867 93.12055621 -20.13876178 100.45616606 -22.94914246 107.81248474 C-24.1370796 110.91799832 -25.33411294 114.01995979 -26.53256226 117.12142944 C-27.08767756 118.56521186 -27.63842807 120.0106812 -28.18447876 121.45791626 C-28.92966072 123.43212037 -29.68958466 125.40002552 -30.453125 127.3671875 C-30.8749707 128.47304199 -31.29681641 129.57889648 -31.73144531 130.71826172 C-33.21754137 133.61807565 -34.30648783 134.85183393 -37.125 136.4375 C-40.4375 136.87109375 -40.4375 136.87109375 -44.125 136.875 C-45.341875 136.89433594 -46.55875 136.91367187 -47.8125 136.93359375 C-51.125 136.4375 -51.125 136.4375 -53.625 134.84765625 C-55.77280665 131.39662317 -54.9059469 129.3689618 -54.125 125.4375 C-53.36729539 123.16539464 -52.53406077 120.91755271 -51.640625 118.6953125 C-51.38926285 118.06361145 -51.1379007 117.4319104 -50.87892151 116.78106689 C-50.05121987 114.7053603 -49.21298429 112.63407408 -48.375 110.5625 C-47.78260492 109.08057733 -47.19106852 107.59831116 -46.6003418 106.11572266 C-45.37751235 103.04904599 -44.15105824 99.98386135 -42.92138672 96.91992188 C-40.23661436 90.22671862 -37.58404941 83.52089054 -34.9375 76.8125 C-34.55351547 75.84089935 -34.55351547 75.84089935 -34.16177368 74.84967041 C-30.53324333 65.66339303 -26.97148878 56.45261133 -23.4453125 47.2265625 C-23.04162949 46.17044769 -22.63794647 45.11433289 -22.22203064 44.0262146 C-20.21553796 38.77357436 -18.21323997 33.5193733 -16.21606445 28.26318359 C-15.47609396 26.32128154 -14.73610458 24.37938668 -13.99609375 22.4375 C-13.49838974 21.12224838 -13.49838974 21.12224838 -12.9906311 19.78042603 C-11.41789862 15.65847201 -9.79735988 11.56005704 -8.07055664 7.5 C-7.7690419 6.78972656 -7.46752716 6.07945312 -7.15687561 5.34765625 C-5.26179383 1.83957614 -4.00595188 0.56083326 0 0 Z " fill="#2F2D2D" transform="translate(660.125,515.5625)"/>
<path d="M0 0 C4.58368663 1.53949247 8.19702037 4.11585101 12.0625 6.9375 C17.75151663 11.03249894 23.49448229 15.03453517 29.30859375 18.94921875 C29.94128677 19.37563156 30.5739798 19.80204437 31.22584534 20.24137878 C33.7904013 21.96855113 36.35572015 23.69449014 38.92654419 25.412323 C40.7452868 26.6278427 42.56036756 27.84866872 44.375 29.0703125 C45.96441406 30.13403076 45.96441406 30.13403076 47.5859375 31.21923828 C50 33 50 33 51 35 C51.55868211 40.81029396 50.61171663 43.46686905 47 48 C44.4732504 50.0821378 41.76652763 51.8168533 39 53.5625 C37.82969238 54.32143555 37.82969238 54.32143555 36.63574219 55.09570312 C34.96808071 56.17575024 33.2970719 57.25064341 31.62304688 58.32080078 C28.02935883 60.62137658 24.45701957 62.95423125 20.8828125 65.28491211 C17.61459702 67.41391932 14.34202513 69.53601895 11.06054688 71.64453125 C9.77722303 72.48872722 8.50926771 73.35739917 7.26757812 74.26171875 C4.95467984 75.94114808 3.14929353 76.9693981 0.33203125 77.546875 C-2 77 -2 77 -3.80078125 74.953125 C-4.54908203 73.61507812 -4.54908203 73.61507812 -5.3125 72.25 C-5.82425781 71.36828125 -6.33601562 70.4865625 -6.86328125 69.578125 C-8 67 -8 67 -8 63 C-6.67749023 61.61889648 -6.67749023 61.61889648 -4.80859375 60.37109375 C-4.11773682 59.89833008 -3.42687988 59.42556641 -2.71508789 58.93847656 C-1.58768188 58.19549316 -1.58768188 58.19549316 -0.4375 57.4375 C1.11824887 56.38046669 2.67291383 55.32183656 4.2265625 54.26171875 C5.0196582 53.72466309 5.81275391 53.18760742 6.62988281 52.63427734 C10.96095385 49.64785485 15.15604173 46.47513278 19.35180664 43.30249023 C23.78469175 40 23.78469175 40 26 40 C22.99314363 36.7195882 19.93057924 34.61596262 16.0625 32.43359375 C14.92039062 31.78326172 13.77828125 31.13292969 12.6015625 30.46289062 C11.40126846 29.78735729 10.20074537 29.11223077 9 28.4375 C6.64375493 27.1064695 4.29033122 25.77067108 1.9375 24.43359375 C0.89464844 23.84634521 -0.14820313 23.25909668 -1.22265625 22.65405273 C-3.62001864 21.22629867 -5.81232594 19.72633452 -8 18 C-6.10463724 11.48180123 -3.4821006 5.82185199 0 0 Z " fill="#2F2D2E" transform="translate(688,561)"/>
<path d="M0 0 C1.72267342 -0.00412399 1.72267342 -0.00412399 3.48014832 -0.0083313 C4.74106293 -0.00114075 6.00197754 0.0060498 7.30110168 0.01345825 C8.64142854 0.01402236 9.98175602 0.01370582 11.32208252 0.01257324 C14.96233865 0.0119987 18.60246335 0.0237693 22.24268889 0.03772116 C26.04635819 0.0502117 29.8500304 0.05139769 33.65371704 0.05377197 C40.85725398 0.05999168 48.06073032 0.07640911 55.26424056 0.09647095 C63.4648711 0.11881471 71.6655045 0.12981954 79.86615789 0.13986182 C96.7361905 0.16077493 113.6061641 0.19596042 130.47615051 0.24050903 C130.47615051 1.23050903 130.47615051 2.22050903 130.47615051 3.24050903 C85.26615051 3.24050903 40.05615051 3.24050903 -6.52384949 3.24050903 C-6.52384949 24.36050903 -6.52384949 45.48050903 -6.52384949 67.24050903 C-7.51384949 68.23050903 -7.51384949 68.23050903 -8.52384949 69.24050903 C-8.59327426 60.53937569 -8.6466222 51.83833728 -8.679286 43.13698769 C-8.6949608 39.09685122 -8.71623174 35.05690384 -8.75016785 31.01687622 C-8.78269725 27.12005116 -8.80068883 23.2234083 -8.80848122 19.32645798 C-8.81403634 17.83764145 -8.82488385 16.34883521 -8.84103966 14.86009598 C-8.86272956 12.77915937 -8.8658201 10.69898138 -8.86442566 8.61795044 C-8.87108749 7.43214386 -8.87774933 6.24633728 -8.88461304 5.02459717 C-8.76556107 4.10584808 -8.64650909 3.187099 -8.52384949 2.24050903 C-5.12785921 -0.02348449 -3.9799473 -0.00733631 0 0 Z " fill="#E4F4DD" transform="translate(359.5238494873047,462.7594909667969)"/>
<path d="M0 0 C0.66 0 1.32 0 2 0 C2.6496875 1.175625 2.6496875 1.175625 3.3125 2.375 C5.35680225 5.55502572 6.43529672 5.9166096 10 7 C13.09104995 7.28748673 13.09104995 7.28748673 16.44262695 7.22705078 C17.72357742 7.22689972 19.00452789 7.22674866 20.32429504 7.22659302 C21.71229205 7.2163813 23.10028744 7.20594933 24.48828125 7.1953125 C25.91602887 7.1915795 27.34377905 7.18873388 28.77153015 7.18673706 C32.51818999 7.17912318 36.26469326 7.15949419 40.0112915 7.1373291 C43.83888634 7.11682214 47.66650662 7.107725 51.49414062 7.09765625 C58.9961649 7.07624599 66.49806046 7.04213741 74 7 C74 7.66 74 8.32 74 9 C71.28493798 10.35753101 69.12462448 10.14971605 66.08496094 10.17700195 C64.2222757 10.19625481 64.2222757 10.19625481 62.32196045 10.21589661 C60.95943602 10.22406518 59.59690708 10.23150869 58.234375 10.23828125 C57.54864662 10.24235678 56.86291824 10.2464323 56.15641022 10.25063133 C52.52501222 10.27149483 48.89365201 10.28579375 45.26220703 10.29516602 C41.51843682 10.30621497 37.77526355 10.34059551 34.03170395 10.38033772 C31.14740934 10.4065388 28.26325599 10.41486102 25.37885284 10.41844749 C23.999392 10.42330664 22.61993718 10.43490162 21.24059296 10.45348549 C7.87997919 10.622264 7.87997919 10.622264 3 6 C0 2.6 0 2.6 0 0 Z " fill="#DAEFCE" transform="translate(752,674)"/>
<path d="M0 0 C0.99 0.33 1.98 0.66 3 1 C3 22.78 3 44.56 3 67 C2.34 67 1.68 67 1 67 C0.67 44.89 0.34 22.78 0 0 Z " fill="#FDFCFB" transform="translate(490,317)"/>
<path d="M0 0 C0.495 0.99 0.495 0.99 1 2 C0.29296875 4.0234375 0.29296875 4.0234375 -0.8125 6.375 C-1.16957031 7.14585937 -1.52664063 7.91671875 -1.89453125 8.7109375 C-2.25933594 9.46632813 -2.62414062 10.22171875 -3 11 C-3.33386719 11.73476563 -3.66773438 12.46953125 -4.01171875 13.2265625 C-5 15 -5 15 -7 16 C-9.09355019 16.09167789 -11.19009177 16.11750933 -13.28564453 16.11352539 C-13.92967224 16.11367142 -14.57369995 16.11381744 -15.23724365 16.1139679 C-17.36913402 16.1132704 -19.50093737 16.10548566 -21.6328125 16.09765625 C-23.10968986 16.09579149 -24.58656784 16.09436786 -26.06344604 16.09336853 C-29.95312199 16.08954792 -33.84276067 16.07972152 -37.73242188 16.06866455 C-41.70051571 16.05844064 -45.66861555 16.05386881 -49.63671875 16.04882812 C-57.42449616 16.03809885 -65.21224286 16.02102789 -73 16 C-73 15.67 -73 15.34 -73 15 C-71.81062836 14.99786247 -71.81062836 14.99786247 -70.597229 14.99568176 C-63.12234041 14.97784744 -55.6481414 14.93622253 -48.17355728 14.86790943 C-44.33079483 14.83362714 -40.48843043 14.80852766 -36.64550781 14.80444336 C-32.93633157 14.80016283 -29.2280534 14.77172282 -25.51915741 14.72656822 C-24.1046446 14.71358496 -22.69002434 14.70928855 -21.27545929 14.71384621 C-19.29326309 14.71874505 -17.31107082 14.6898151 -15.32910156 14.65942383 C-14.20103088 14.65276199 -13.07296021 14.64610016 -11.91070557 14.63923645 C-8.077228 13.79734484 -7.09223558 12.23103317 -5 9 C-3.76403329 6.84907492 -3.76403329 6.84907492 -2.8125 4.75 C-1.08185053 1.08185053 -1.08185053 1.08185053 0 0 Z " fill="#FDFDFA" transform="translate(397,599)"/>
<path d="M0 0 C1.27322283 3.81966848 0.48393612 4.89232235 -1.0546875 8.55078125 C-1.50457031 9.64197266 -1.95445312 10.73316406 -2.41796875 11.85742188 C-2.89878906 12.99759766 -3.37960937 14.13777344 -3.875 15.3125 C-4.81554815 17.55623272 -5.75063563 19.80226397 -6.6796875 22.05078125 C-7.09976074 23.04762939 -7.51983398 24.04447754 -7.95263672 25.0715332 C-9.01914456 28.0535289 -9.52634754 30.87638665 -10 34 C-10.33 34.66 -10.66 35.32 -11 36 C-11.66 36 -12.32 36 -13 36 C-13.99 38.97 -14.98 41.94 -16 45 C-17.13198344 41.60404968 -16.91614433 41.09500116 -15.66064453 37.91162109 C-15.18487473 36.68552628 -15.18487473 36.68552628 -14.69949341 35.43466187 C-14.34748871 34.55645782 -13.99548401 33.67825378 -13.6328125 32.7734375 C-13.27863251 31.87001617 -12.92445251 30.96659485 -12.55953979 30.03579712 C-11.8088796 28.12598041 -11.05372027 26.21792694 -10.29443359 24.31152344 C-9.12826119 21.38318906 -7.97504819 18.45001867 -6.82421875 15.515625 C-6.09449883 13.66376725 -5.36405465 11.8121947 -4.6328125 9.9609375 C-4.11087814 8.63755875 -4.11087814 8.63755875 -3.57839966 7.28744507 C-3.25491547 6.47635284 -2.93143127 5.66526062 -2.59814453 4.82958984 C-2.31311066 4.11249847 -2.02807678 3.3954071 -1.73440552 2.65658569 C-1 1 -1 1 0 0 Z " fill="#1CAD10" transform="translate(638,427)"/>
<path d="M0 0 C1.17037635 3.51112904 0.86295634 3.8866582 -0.6875 7.0625 C-2.65878223 11.22258527 -4.35581533 15.42901855 -5.97265625 19.73828125 C-7.05154142 22.11346951 -8.36495084 23.97587398 -10 26 C-9.44295796 20.23881183 -7.82294417 15.4956306 -5.5625 10.1875 C-5.24990234 9.42501953 -4.93730469 8.66253906 -4.61523438 7.87695312 C-2.27056421 2.27056421 -2.27056421 2.27056421 0 0 Z " fill="#F9FBF2" transform="translate(502,584)"/>
<path d="M0 0 C0.66 0.66 1.32 1.32 2 2 C-3.41753258 6.46444815 -8.60104837 10.09138562 -15 13 C-13.48922551 8.60868215 -10.08337724 6.68263208 -6.375 4.25 C-5.45847656 3.63318359 -5.45847656 3.63318359 -4.5234375 3.00390625 C-3.02104672 1.99448744 -1.51123091 0.9961353 0 0 Z " fill="#FAFBF0" transform="translate(252,335)"/>
<path d="M0 0 C2.95719942 0.32857771 4.57283195 0.56395316 6.69140625 2.7265625 C9.72081554 5.70983866 13.11933534 7.83675739 16.6875 10.125 C23.86570248 14.73140496 23.86570248 14.73140496 25 17 C20.08065461 15.36342717 16.15142429 12.56045597 11.9375 9.625 C11.23044922 9.14289062 10.52339844 8.66078125 9.79492188 8.1640625 C6.20873475 5.68572097 2.95516866 3.23917188 0 0 Z " fill="#4FE031" transform="translate(712,576)"/>
<path d="M0 0 C1.51980469 0.72316406 1.51980469 0.72316406 3.0703125 1.4609375 C4.42179122 2.09913578 5.77335844 2.73714668 7.125 3.375 C7.79015625 3.69210937 8.4553125 4.00921875 9.140625 4.3359375 C13.03110695 6.16675254 16.88104776 7.72966893 21 9 C20.67 9.66 20.34 10.32 20 11 C13.26259764 9.26993635 6.6401508 7.21405345 1 3 C0.67 2.01 0.34 1.02 0 0 Z " fill="#F8FAF2" transform="translate(293,602)"/>
<path d="M0 0 C2.9719385 1.12451727 5.33440687 2.22293791 8 4 C8 4.66 8 5.32 8 6 C6.03125 7.5078125 6.03125 7.5078125 3.5 9.125 C2.6646875 9.66382813 1.829375 10.20265625 0.96875 10.7578125 C0.3190625 11.16773438 -0.330625 11.57765625 -1 12 C-1.66 11.67 -2.32 11.34 -3 11 C-1.35 9.68 0.3 8.36 2 7 C1.34 4.69 0.68 2.38 0 0 Z " fill="#50D832" transform="translate(706,595)"/>
<path d="M0 0 C1.64680455 4.04215662 0.24159458 6.77818603 -1.3125 10.6875 C-1.98732422 12.42580078 -1.98732422 12.42580078 -2.67578125 14.19921875 C-4 17 -4 17 -6 18 C-6.75 14.75 -6.75 14.75 -7 11 C-5.25 9 -5.25 9 -3 7 C-1.80794891 4.71523542 -0.92757234 2.41168809 0 0 Z " fill="#F8F9EF" transform="translate(559,622)"/>
<path d="M0 0 C1.23611965 3.70835894 0.60299388 4.71275639 -0.80078125 8.2890625 C-1.20103516 9.31257813 -1.60128906 10.33609375 -2.01367188 11.390625 C-2.44228516 12.45796875 -2.87089844 13.5253125 -3.3125 14.625 C-3.93801758 16.23761719 -3.93801758 16.23761719 -4.57617188 17.8828125 C-7.73721591 25.86860795 -7.73721591 25.86860795 -10 27 C-9.67 24.36 -9.34 21.72 -9 19 C-8.34 19 -7.68 19 -7 19 C-6.82984375 18.46632813 -6.6596875 17.93265625 -6.484375 17.3828125 C-4.56536676 11.4828829 -2.35945761 5.73695531 0 0 Z " fill="#20AE13" transform="translate(537,489)"/>
<path d="M0 0 C1.17348213 3.52044638 0.83679382 5.42460821 0 9 C-0.66 9.66 -1.32 10.32 -2 11 C-3.21477079 14.28702686 -4.21217204 17.58607883 -5 21 C-5.66 21 -6.32 21 -7 21 C-7.33 21.66 -7.66 22.32 -8 23 C-7.38696372 17.59491957 -5.55619307 13.07560955 -3.4375 8.125 C-3.10814453 7.34125 -2.77878906 6.5575 -2.43945312 5.75 C-1.63203214 3.83091244 -0.81680231 1.9151135 0 0 Z " fill="#4FDF31" transform="translate(640,614)"/>
<path d="M0 0 C1 3 1 3 0.22265625 5.0859375 C-0.16019531 5.84132813 -0.54304687 6.59671875 -0.9375 7.375 C-2.58364036 10.83020929 -3.23416791 13.13622948 -3 17 C-3.66 17.66 -4.32 18.32 -5 19 C-5.99 18.67 -6.98 18.34 -8 18 C-6.85718854 15.18623705 -5.71091259 12.37397584 -4.5625 9.5625 C-4.23701172 8.76005859 -3.91152344 7.95761719 -3.57617188 7.13085938 C-3.10727539 5.98520508 -3.10727539 5.98520508 -2.62890625 4.81640625 C-2.34088135 4.10943604 -2.05285645 3.40246582 -1.75610352 2.67407227 C-1 1 -1 1 0 0 Z " fill="#F5FAED" transform="translate(569,413)"/>
<path d="M0 0 C-3.07517084 10.55808656 -3.07517084 10.55808656 -5 15 C-5.66 15 -6.32 15 -7 15 C-6.67 13.783125 -6.34 12.56625 -6 11.3125 C-5.33616616 8.72583709 -5.00387877 6.82157639 -5.0625 4.125 C-5.041875 3.42375 -5.02125 2.7225 -5 2 C-2 0 -2 0 0 0 Z " fill="#F6FAED" transform="translate(469,599)"/>
<path d="M0 0 C1.39214652 4.17643955 -0.29335734 6.83437793 -1.9375 10.6875 C-2.22818359 11.38939453 -2.51886719 12.09128906 -2.81835938 12.81445312 C-3.53710313 14.54650775 -4.26745331 16.27373781 -5 18 C-5.66 18 -6.32 18 -7 18 C-5.26375242 11.5811453 -3.14819255 5.86215164 0 0 Z " fill="#F5FAF0" transform="translate(613,486)"/>
<path d="M0 0 C0.93423645 3.01031744 1.04449911 3.86650268 0 7 C-0.66 7 -1.32 7 -2 7 C-2.75241109 10.65456815 -3.40049704 14.31733897 -4 18 C-4.66 18 -5.32 18 -6 18 C-6.33 18.66 -6.66 19.32 -7 20 C-6.56999948 13.69332572 -4.57144825 4.57144825 0 0 Z " fill="#2A172D" transform="translate(628,587)"/>
<path d="M0 0 C0.99 0 1.98 0 3 0 C2.125 4.75 2.125 4.75 1 7 C0.34 7 -0.32 7 -1 7 C-1.99 9.97 -2.98 12.94 -4 16 C-5.35304209 11.94087374 -4.15216503 10.22850409 -2.5625 6.3125 C-2.08941406 5.13300781 -1.61632812 3.95351563 -1.12890625 2.73828125 C-0.75636719 1.83464844 -0.38382813 0.93101562 0 0 Z " fill="#29B41A" transform="translate(626,456)"/>
<path d="M0 0 C1.31600093 3.94800278 0.07613159 6.39940306 -1.3125 10.125 C-1.53873047 10.77082031 -1.76496094 11.41664063 -1.99804688 12.08203125 C-3.73948991 16.86974496 -3.73948991 16.86974496 -6 18 C-6.41947561 13.3595511 -5.0087475 10.33054173 -3 6.1875 C-2.443125 5.02605469 -1.88625 3.86460937 -1.3125 2.66796875 C-0.879375 1.78753906 -0.44625 0.90710938 0 0 Z " fill="#F6FBF1" transform="translate(456,630)"/>
<path d="M0 0 C0.33 0.66 0.66 1.32 1 2 C0.21625 2.433125 -0.5675 2.86625 -1.375 3.3125 C-4.21698375 4.89220247 -4.21698375 4.89220247 -6 8 C-6.33 7.67 -6.66 7.34 -7 7 C-7.391875 7.474375 -7.78375 7.94875 -8.1875 8.4375 C-10.40808374 10.35179633 -12.13375709 10.61266988 -15 11 C-10.70024145 6.12694031 -5.62775683 3.1799558 0 0 Z " fill="#4FE032" transform="translate(705,628)"/>
<path d="M0 0 C0.66 0 1.32 0 2 0 C3.58820066 1.88450676 5.05282461 3.76186767 6.5 5.75 C7.10521484 6.55824219 7.10521484 6.55824219 7.72265625 7.3828125 C9.76621329 10.14802169 11.59599048 12.85623955 13 16 C7.83571113 11.96635426 3.45264081 7.61528396 0 2 C0 1.34 0 0.68 0 0 Z " fill="#F8FBF5" transform="translate(216,625)"/>
<path d="M0 0 C3 0 3 0 5.25 2.1875 C6.61125 3.5796875 6.61125 3.5796875 8 5 C10.28156197 6.75504767 12.62509238 8.37016144 15 10 C14.34 10.66 13.68 11.32 13 12 C11.20425007 10.56760415 9.41353093 9.1288996 7.625 7.6875 C6.62726563 6.88699219 5.62953125 6.08648438 4.6015625 5.26171875 C2 3 2 3 0 0 Z " fill="#F8FBF2" transform="translate(234,646)"/>
<path d="M0 0 C0.66 0 1.32 0 2 0 C-1.07517084 10.55808656 -1.07517084 10.55808656 -3 15 C-3.66 15 -4.32 15 -5 15 C-3.97137215 9.55432314 -2.75385216 4.88182883 0 0 Z " fill="#F9FBF3" transform="translate(477,572)"/>
<path d="M0 0 C2.16874252 0.50603992 3.99967627 0.99983813 6 2 C6 2.66 6 3.32 6 4 C6.99 4 7.98 4 9 4 C11.1875 6.5 11.1875 6.5 13 9 C9.02348017 9 7.85083826 7.55718178 4.8125 5.0625 C3.91144531 4.33160156 3.01039063 3.60070312 2.08203125 2.84765625 C1.39496094 2.23792969 0.70789063 1.62820313 0 1 C0 0.67 0 0.34 0 0 Z " fill="#F9FAF2" transform="translate(726,566)"/>
<path d="M0 0 C3.03952713 4.5592907 5 8.47162419 5 14 C4.34 14 3.68 14 3 14 C2.51891725 12.58398286 2.04021859 11.16715563 1.5625 9.75 C1.29566406 8.96109375 1.02882813 8.1721875 0.75390625 7.359375 C0.0775846 5.24280362 -0.5799322 3.18242123 -1 1 C-0.67 0.67 -0.34 0.34 0 0 Z " fill="#F4F9ED" transform="translate(807,618)"/>
<path d="M0 0 C1.109375 3.75 1.109375 3.75 0.125 6 C-0.24625 6.66 -0.6175 7.32 -1 8 C-1.36784131 9.3242287 -1.71202981 10.65613912 -2 12 C-2.66 12 -3.32 12 -4 12 C-4.33 12.66 -4.66 13.32 -5 14 C-4.46515599 8.65155992 -2.53309233 4.64203897 0 0 Z " fill="#2BB31C" transform="translate(598,529)"/>
<path d="M0 0 C0 2.92849051 -0.43409485 4.85914993 -1.3125 7.625 C-1.55613281 8.42164063 -1.79976562 9.21828125 -2.05078125 10.0390625 C-2.36402344 10.68617188 -2.67726562 11.33328125 -3 12 C-3.99 12.33 -4.98 12.66 -6 13 C-5.4574852 8.44287564 -4.3106498 4.97431766 -2 1 C-1.34 0.67 -0.68 0.34 0 0 Z " fill="#F9FBF1" transform="translate(211,378)"/>
<path d="M0 0 C0.99 0.495 0.99 0.495 2 1 C2.73075648 3.3140622 3.40138258 5.64828869 4 8 C4.66 8 5.32 8 6 8 C6.33 10.97 6.66 13.94 7 17 C4.48757583 13.96205445 3.11771466 11.08561027 1.8125 7.375 C1.46832031 6.41335938 1.12414062 5.45171875 0.76953125 4.4609375 C0 2 0 2 0 0 Z " fill="#20AF12" transform="translate(714,378)"/>
<path d="M0 0 C0.33 0 0.66 0 1 0 C0.91306859 1.79258558 0.80489496 3.58415144 0.6875 5.375 C0.62949219 6.37273437 0.57148438 7.37046875 0.51171875 8.3984375 C0.34285156 9.25695312 0.17398438 10.11546875 0 11 C-0.99 11.66 -1.98 12.32 -3 13 C-2.88557539 11.39504433 -2.75805306 9.79101881 -2.625 8.1875 C-2.55539063 7.29417969 -2.48578125 6.40085937 -2.4140625 5.48046875 C-2 3 -2 3 0 0 Z " fill="#32B821" transform="translate(197,408)"/>
<path d="M0 0 C1.65 0 3.3 0 5 0 C5.2475 0.598125 5.495 1.19625 5.75 1.8125 C7.16370012 4.28647521 8.65055383 5.43370255 11 7 C10.67 7.66 10.34 8.32 10 9 C8.33043913 7.69118353 6.66441696 6.37785174 5 5.0625 C4.071875 4.33160156 3.14375 3.60070312 2.1875 2.84765625 C1.465625 2.23792969 0.74375 1.62820313 0 1 C0 0.67 0 0.34 0 0 Z " fill="#F7FCF0" transform="translate(739,576)"/>
<path d="M0 0 C0.33 0 0.66 0 1 0 C0.53328373 5.41390868 -0.24297811 9.20517932 -3 14 C-4.37095624 10.30962722 -3.60010967 8.29116165 -2.0625 4.75 C-1.68222656 3.85796875 -1.30195312 2.9659375 -0.91015625 2.046875 C-0.60980469 1.37140625 -0.30945313 0.6959375 0 0 Z " fill="#F9FCF5" transform="translate(546,654)"/>
<path d="M0 0 C0.99 0.33 1.98 0.66 3 1 C-1 7.57142857 -1 7.57142857 -5 9 C-5 8.01 -5 7.02 -5 6 C-4.01 6 -3.02 6 -2 6 C-2 5.01 -2 4.02 -2 3 C-1.34 3 -0.68 3 0 3 C0 2.01 0 1.02 0 0 Z " fill="#E9F7DF" transform="translate(538,674)"/>
<path d="M0 0 C4.4062186 1.34634457 6.43077702 3.19374374 9 7 C9 7.66 9 8.32 9 9 C5.51127585 7.83709195 4.90023136 6.86032391 2.8125 3.9375 C2.28269531 3.20402344 1.75289062 2.47054687 1.20703125 1.71484375 C0.80871094 1.14894531 0.41039062 0.58304688 0 0 Z " fill="#F9FDF4" transform="translate(751,585)"/>
<path d="M0 0 C2 1 2 1 2.8515625 3.28515625 C3.10679687 4.20167969 3.36203125 5.11820312 3.625 6.0625 C3.88539063 6.98160156 4.14578125 7.90070313 4.4140625 8.84765625 C4.60742188 9.55792969 4.80078125 10.26820313 5 11 C4.01 11 3.02 11 2 11 C0.80712589 7.12315913 0 4.08378077 0 0 Z " fill="#F7FAF0" transform="translate(758,495)"/>
<path d="M0 0 C2.9512645 1.47563225 3.06923915 3.50079352 4.125 6.5625 C4.47820313 7.57441406 4.83140625 8.58632813 5.1953125 9.62890625 C5.46085938 10.41136719 5.72640625 11.19382812 6 12 C5.01 12 4.02 12 3 12 C2.49166409 10.75336669 1.99368855 9.50250613 1.5 8.25 C1.2215625 7.55390625 0.943125 6.8578125 0.65625 6.140625 C0 4 0 4 0 0 Z " fill="#F6FAF0" transform="translate(678,482)"/>
<path d="M0 0 C-1.57118065 4.71354196 -4.93818614 7.29212409 -9 10 C-8.42110619 6.71245489 -7.45171589 5.06327505 -5.0625 2.75 C-4.53785156 2.22921875 -4.01320313 1.7084375 -3.47265625 1.171875 C-2 0 -2 0 0 0 Z " fill="#EEF9E9" transform="translate(291,399)"/>
<path d="M0 0 C0 0.66 0 1.32 0 2 C-1.45381897 2.69699552 -2.91322953 3.38233866 -4.375 4.0625 C-5.18710937 4.44535156 -5.99921875 4.82820313 -6.8359375 5.22265625 C-7.55007813 5.47917969 -8.26421875 5.73570312 -9 6 C-9.66 5.67 -10.32 5.34 -11 5 C-3.74193548 0 -3.74193548 0 0 0 Z " fill="#F9FBF3" transform="translate(276,324)"/>
<path d="M0 0 C0 3.23655184 -0.6550847 4.78752639 -2 7.6875 C-2.37125 8.49574219 -2.7425 9.30398438 -3.125 10.13671875 C-3.41375 10.75160156 -3.7025 11.36648438 -4 12 C-5.03596041 8.78782744 -5.07584301 8.1805786 -3.6875 4.875 C-2 2 -2 2 0 0 Z " fill="#F7FBF0" transform="translate(608,317)"/>
<path d="M0 0 C0.33 0.99 0.66 1.98 1 3 C-2.90028225 5.60018816 -6.47434569 5.15085514 -11 5 C-11 4.67 -11 4.34 -11 4 C-9.1128125 3.566875 -9.1128125 3.566875 -7.1875 3.125 C-4.1460601 2.42696461 -2.69330122 1.79553415 0 0 Z " fill="#4EE430" transform="translate(626,649)"/>
<path d="M0 0 C1.65 0 3.3 0 5 0 C1.87378374 3.39417765 -0.56541027 5.6062718 -5 7 C-4.360625 6.21625 -3.72125 5.4325 -3.0625 4.625 C-1.01857687 2.20460719 -1.01857687 2.20460719 0 0 Z " fill="#51E232" transform="translate(697,608)"/>
<path d="M0 0 C0.66 0.33 1.32 0.66 2 1 C0.68 2.65 -0.64 4.3 -2 6 C-3.32 5.67 -4.64 5.34 -6 5 C-6 4.34 -6 3.68 -6 3 C-4.03533587 1.93224776 -2.03144641 0.93446535 0 0 Z " fill="#EBF5DF" transform="translate(264,328)"/>
<path d="M0 0 C0.33 1.32 0.66 2.64 1 4 C0.34 4 -0.32 4 -1 4 C-1.33 5.65 -1.66 7.3 -2 9 C-2.66 9 -3.32 9 -4 9 C-3.71848913 7.68528432 -3.42446661 6.37324233 -3.125 5.0625 C-2.96257812 4.33160156 -2.80015625 3.60070312 -2.6328125 2.84765625 C-2 1 -2 1 0 0 Z " fill="#EFF9E7" transform="translate(407,572)"/>
<path d="M0 0 C1.43088528 2.86177057 0.59991697 4.93375773 0 8 C-0.66 8 -1.32 8 -2 8 C-2.33 8.99 -2.66 9.98 -3 11 C-3.33 10.34 -3.66 9.68 -4 9 C-3.22265625 6.8359375 -3.22265625 6.8359375 -2.0625 4.375 C-1.68222656 3.55773437 -1.30195312 2.74046875 -0.91015625 1.8984375 C-0.60980469 1.27195312 -0.30945313 0.64546875 0 0 Z " fill="#25AE16" transform="translate(607,506)"/>
<path d="M0 0 C2 2 2 2 2.046875 3.91015625 C1.94890625 4.62042969 1.8509375 5.33070313 1.75 6.0625 C1.61851562 7.13177734 1.61851562 7.13177734 1.484375 8.22265625 C1.32453125 8.80917969 1.1646875 9.39570313 1 10 C0.01 10.495 0.01 10.495 -1 11 C-0.67 7.37 -0.34 3.74 0 0 Z " fill="#E9F6DE" transform="translate(197,413)"/>
<path d="M0 0 C0.66 0.33 1.32 0.66 2 1 C-0.31 3.64 -2.62 6.28 -5 9 C-5.99 8.67 -6.98 8.34 -8 8 C-5.36 5.36 -2.72 2.72 0 0 Z " fill="#FCFDF7" transform="translate(232,350)"/>
<path d="M0 0 C0.33 0.66 0.66 1.32 1 2 C1.66 2 2.32 2 3 2 C3 3.32 3 4.64 3 6 C3.99 6.33 4.98 6.66 6 7 C5.01 7.66 4.02 8.32 3 9 C0 3.375 0 3.375 0 0 Z " fill="#F7FAEE" transform="translate(701,542)"/>
<path d="M0 0 C2.7972908 2.06756277 3.02692273 3.14440371 3.6875 6.6875 C3.790625 7.780625 3.89375 8.87375 4 10 C1.2027092 7.93243723 0.97307727 6.85559629 0.3125 3.3125 C0.209375 2.219375 0.10625 1.12625 0 0 Z " fill="#F8F9F0" transform="translate(697,531)"/>
<path d="M0 0 C0.66 0 1.32 0 2 0 C3.38938077 1.96147874 4.7260411 3.96166576 6 6 C3 6 3 6 1.3125 4.6875 C0 3 0 3 0 0 Z " fill="#E0F3D8" transform="translate(229,640)"/>
</svg>
